<svg width="22" height="16" viewBox="0 0 22 16" fill="none" xmlns="http://www.w3.org/2000/svg">
<path d="M21.4453 2.57031C21.2109 1.63281 20.4688 0.890625 19.5703 0.65625C17.8906 0.1875 11.25 0.1875 11.25 0.1875C11.25 0.1875 4.57031 0.1875 2.89062 0.65625C1.99219 0.890625 1.25 1.63281 1.01562 2.57031C0.546875 4.21094 0.546875 7.72656 0.546875 7.72656C0.546875 7.72656 0.546875 11.2031 1.01562 12.8828C1.25 13.8203 1.99219 14.5234 2.89062 14.7578C4.57031 15.1875 11.25 15.1875 11.25 15.1875C11.25 15.1875 17.8906 15.1875 19.5703 14.7578C20.4688 14.5234 21.2109 13.8203 21.4453 12.8828C21.9141 11.2031 21.9141 7.72656 21.9141 7.72656C21.9141 7.72656 21.9141 4.21094 21.4453 2.57031ZM9.0625 10.8906V4.5625L14.6094 7.72656L9.0625 10.8906Z" fill="#8492A6"/>
</svg>
