<svg width="20" height="17" viewBox="0 0 20 17" fill="none" xmlns="http://www.w3.org/2000/svg">
<path d="M17.9297 4.625C17.9297 4.82031 17.9297 4.97656 17.9297 5.17188C17.9297 10.6016 13.8281 16.8125 6.28906 16.8125C3.94531 16.8125 1.79688 16.1484 0 14.9766C0.3125 15.0156 0.625 15.0547 0.976562 15.0547C2.89062 15.0547 4.64844 14.3906 6.05469 13.2969C4.25781 13.2578 2.73438 12.0859 2.22656 10.4453C2.5 10.4844 2.73438 10.5234 3.00781 10.5234C3.35938 10.5234 3.75 10.4453 4.0625 10.3672C2.1875 9.97656 0.78125 8.33594 0.78125 6.34375V6.30469C1.32812 6.61719 1.99219 6.77344 2.65625 6.8125C1.52344 6.07031 0.820312 4.82031 0.820312 3.41406C0.820312 2.63281 1.01562 1.92969 1.36719 1.34375C3.39844 3.80469 6.44531 5.44531 9.84375 5.64062C9.76562 5.32812 9.72656 5.01562 9.72656 4.70312C9.72656 2.4375 11.5625 0.601562 13.8281 0.601562C15 0.601562 16.0547 1.07031 16.8359 1.89062C17.7344 1.69531 18.6328 1.34375 19.4141 0.875C19.1016 1.85156 18.4766 2.63281 17.6172 3.14062C18.4375 3.0625 19.2578 2.82812 19.9609 2.51562C19.4141 3.33594 18.7109 4.03906 17.9297 4.625Z" fill="#8492A6"/>
</svg>
