<svg width="27" height="16" viewBox="0 0 27 16" fill="none" xmlns="http://www.w3.org/2000/svg">
<path d="M19.6875 12.1562C19.0781 12.1562 18.5625 11.6875 18.5625 11.0312C18.5625 10.4219 19.0781 9.90625 19.6875 9.90625C20.2969 9.90625 20.8125 10.4219 20.8125 11.0312C20.8125 11.6875 20.2969 12.1562 19.6875 12.1562ZM7.26562 12.1562C6.65625 12.1562 6.14062 11.6875 6.14062 11.0312C6.14062 10.4219 6.65625 9.90625 7.26562 9.90625C7.875 9.90625 8.39062 10.4219 8.39062 11.0312C8.39062 11.6875 7.875 12.1562 7.26562 12.1562ZM20.1094 5.40625L22.3594 1.51562C22.4531 1.375 22.4531 1.1875 22.3594 1.04688C22.2656 0.859375 22.125 0.765625 21.9375 0.765625C21.75 0.765625 21.6094 0.90625 21.5156 1.04688L19.2656 4.98438C15.5625 3.34375 11.3906 3.34375 7.6875 4.98438L5.4375 1.04688C5.34375 0.90625 5.20312 0.765625 5.01562 0.765625C4.82812 0.765625 4.6875 0.859375 4.59375 1.04688C4.5 1.1875 4.5 1.375 4.59375 1.51562L6.84375 5.40625C3 7.51562 0.375 11.4062 0 16H27C26.5781 11.4062 23.9531 7.51562 20.1094 5.40625Z" fill="#8492A6"/>
</svg>
