<svg width="29" height="20" viewBox="0 0 29 20" fill="none" xmlns="http://www.w3.org/2000/svg">
<path fill-rule="evenodd" clip-rule="evenodd" d="M2 0.5C0.895431 0.5 0 1.39543 0 2.5L0 17.5C0 18.6046 0.89543 19.5 2 19.5H27C28.1046 19.5 29 18.6046 29 17.5V2.5C29 1.39543 28.1046 0.5 27 0.5H2ZM7.23438 4.125H6.15625H5.25H4.17969V15.5H6.51562V12.2656L6.28241 6.98277L9.35938 15.5H10.9531L14.0301 6.98277L13.7969 12.2656V15.5H16.1406V4.125H15.0625H14.1562H13.0781L10.1562 12.4766L7.23438 4.125ZM25.5078 15.5V13.6719H20.5391V4.125H18.1953V15.5H19.7812H20.5391H25.5078Z" fill="white"/>
</svg>
