<svg width="58" height="58" viewBox="0 0 58 58" fill="none" xmlns="http://www.w3.org/2000/svg">
<g filter="url(#filter0_d_1261_1430)">
<rect x="4" y="2" width="50" height="50" rx="10" fill="url(#paint0_linear_1261_1430)"/>
<path fill-rule="evenodd" clip-rule="evenodd" d="M16.5 17.5C15.3954 17.5 14.5 18.3954 14.5 19.5V34.5C14.5 35.6046 15.3954 36.5 16.5 36.5H41.5C42.6046 36.5 43.5 35.6046 43.5 34.5V19.5C43.5 18.3954 42.6046 17.5 41.5 17.5H16.5ZM21.7344 21.125H20.6562H19.75H18.6797V32.5H21.0156V29.2656L20.7824 23.9828L23.8594 32.5H25.4531L28.5301 23.9828L28.2969 29.2656V32.5H30.6406V21.125H29.5625H28.6562H27.5781L24.6562 29.4766L21.7344 21.125ZM40.0078 32.5V30.6719H35.0391V21.125H32.6953V32.5H34.2812H35.0391H40.0078Z" fill="white"/>
</g>
<defs>
<filter id="filter0_d_1261_1430" x="0" y="0" width="58" height="58" filterUnits="userSpaceOnUse" color-interpolation-filters="sRGB">
<feFlood flood-opacity="0" result="BackgroundImageFix"/>
<feColorMatrix in="SourceAlpha" type="matrix" values="0 0 0 0 0 0 0 0 0 0 0 0 0 0 0 0 0 0 127 0" result="hardAlpha"/>
<feOffset dy="2"/>
<feGaussianBlur stdDeviation="2"/>
<feColorMatrix type="matrix" values="0 0 0 0 0.141176 0 0 0 0 0.0313726 0 0 0 0 0.501961 0 0 0 0.15 0"/>
<feBlend mode="normal" in2="BackgroundImageFix" result="effect1_dropShadow_1261_1430"/>
<feBlend mode="normal" in="SourceGraphic" in2="effect1_dropShadow_1261_1430" result="shape"/>
</filter>
<linearGradient id="paint0_linear_1261_1430" x1="-21" y1="27" x2="29" y2="77" gradientUnits="userSpaceOnUse">
<stop stop-color="#F2C314"/>
<stop offset="1" stop-color="#FC3832"/>
</linearGradient>
</defs>
</svg>
