<svg width="23" height="27" viewBox="0 0 23 27" fill="none" xmlns="http://www.w3.org/2000/svg">
<path d="M18.6328 14.5117C18.6328 12.3438 19.6289 10.7617 21.5625 9.53125C20.4492 7.94922 18.8086 7.12891 16.6406 6.95312C14.5312 6.77734 12.2461 8.125 11.4258 8.125C10.5469 8.125 8.55469 7.01172 6.97266 7.01172C3.69141 7.07031 0.234375 9.58984 0.234375 14.8047C0.234375 16.3281 0.46875 17.9102 1.05469 19.5508C1.81641 21.7188 4.51172 26.9922 7.32422 26.875C8.78906 26.875 9.84375 25.8203 11.7773 25.8203C13.6523 25.8203 14.5898 26.875 16.2305 26.875C19.1016 26.875 21.5625 22.0703 22.2656 19.9023C18.457 18.0859 18.6328 14.6289 18.6328 14.5117ZM15.3516 4.90234C16.9336 3.02734 16.7578 1.26953 16.7578 0.625C15.3516 0.742188 13.7109 1.62109 12.7734 2.67578C11.7188 3.84766 11.1328 5.3125 11.25 6.89453C12.7734 7.01172 14.1797 6.25 15.3516 4.90234Z" fill="#8492A6"/>
</svg>
