<svg width="96" height="24" viewBox="0 0 96 24" fill="none" xmlns="http://www.w3.org/2000/svg">
<path d="M5.41624 18.716C4.64824 18.716 3.88024 18.572 3.11224 18.284C2.35624 17.996 1.67824 17.576 1.07824 17.024L2.59024 15.206C3.01024 15.566 3.47824 15.86 3.99424 16.088C4.51024 16.316 5.00824 16.43 5.48824 16.43C6.04024 16.43 6.44824 16.328 6.71224 16.124C6.98824 15.92 7.12624 15.644 7.12624 15.296C7.12624 14.924 6.97024 14.654 6.65824 14.486C6.35824 14.306 5.95024 14.108 5.43424 13.892L3.90424 13.244C3.50824 13.076 3.13024 12.854 2.77024 12.578C2.41024 12.29 2.11624 11.936 1.88824 11.516C1.66024 11.096 1.54624 10.604 1.54624 10.04C1.54624 9.392 1.72024 8.804 2.06824 8.276C2.42824 7.748 2.92024 7.328 3.54424 7.016C4.18024 6.704 4.90624 6.548 5.72224 6.548C6.39424 6.548 7.06624 6.68 7.73824 6.944C8.41024 7.208 8.99824 7.592 9.50224 8.096L8.15224 9.77C7.76824 9.47 7.38424 9.242 7.00024 9.086C6.61624 8.918 6.19024 8.834 5.72224 8.834C5.26624 8.834 4.90024 8.93 4.62424 9.122C4.36024 9.302 4.22824 9.56 4.22824 9.896C4.22824 10.256 4.39624 10.526 4.73224 10.706C5.08024 10.886 5.50624 11.078 6.01024 11.282L7.52224 11.894C8.23024 12.182 8.79424 12.578 9.21424 13.082C9.63424 13.586 9.84424 14.252 9.84424 15.08C9.84424 15.728 9.67024 16.328 9.32224 16.88C8.97424 17.432 8.47024 17.876 7.81024 18.212C7.15024 18.548 6.35224 18.716 5.41624 18.716ZM11.6202 18.5V5.882H14.2662V8.978L14.1402 10.58C14.4762 10.28 14.8662 10.004 15.3102 9.752C15.7662 9.488 16.2942 9.356 16.8942 9.356C17.8662 9.356 18.5682 9.68 19.0002 10.328C19.4442 10.964 19.6662 11.84 19.6662 12.956V18.5H17.0202V13.298C17.0202 12.65 16.9302 12.206 16.7502 11.966C16.5822 11.726 16.3062 11.606 15.9222 11.606C15.5862 11.606 15.2982 11.684 15.0582 11.84C14.8182 11.984 14.5542 12.194 14.2662 12.47V18.5H11.6202ZM25.7374 18.716C24.9814 18.716 24.2674 18.536 23.5954 18.176C22.9354 17.804 22.4014 17.27 21.9934 16.574C21.5854 15.866 21.3814 15.02 21.3814 14.036C21.3814 13.04 21.5854 12.194 21.9934 11.498C22.4014 10.802 22.9354 10.274 23.5954 9.914C24.2674 9.542 24.9814 9.356 25.7374 9.356C26.4934 9.356 27.2014 9.542 27.8614 9.914C28.5214 10.274 29.0554 10.802 29.4634 11.498C29.8714 12.194 30.0754 13.04 30.0754 14.036C30.0754 15.02 29.8714 15.866 29.4634 16.574C29.0554 17.27 28.5214 17.804 27.8614 18.176C27.2014 18.536 26.4934 18.716 25.7374 18.716ZM25.7374 16.574C26.2774 16.574 26.6854 16.346 26.9614 15.89C27.2374 15.422 27.3754 14.804 27.3754 14.036C27.3754 13.256 27.2374 12.638 26.9614 12.182C26.6854 11.726 26.2774 11.498 25.7374 11.498C25.1854 11.498 24.7714 11.726 24.4954 12.182C24.2314 12.638 24.0994 13.256 24.0994 14.036C24.0994 14.804 24.2314 15.422 24.4954 15.89C24.7714 16.346 25.1854 16.574 25.7374 16.574ZM33.2411 18.5L31.0091 9.572H33.6371L34.5011 13.712C34.5731 14.156 34.6391 14.594 34.6991 15.026C34.7591 15.458 34.8251 15.902 34.8971 16.358H34.9691C35.0531 15.902 35.1311 15.452 35.2031 15.008C35.2871 14.564 35.3831 14.132 35.4911 13.712L36.4811 9.572H38.7671L39.7751 13.712C39.8831 14.156 39.9791 14.594 40.0631 15.026C40.1591 15.458 40.2491 15.902 40.3331 16.358H40.4051C40.4891 15.902 40.5551 15.458 40.6031 15.026C40.6631 14.594 40.7351 14.156 40.8191 13.712L41.6651 9.572H44.1131L41.9711 18.5H38.8751L38.0651 14.936C37.9811 14.516 37.8971 14.096 37.8131 13.676C37.7411 13.256 37.6631 12.806 37.5791 12.326H37.5071C37.4231 12.806 37.3451 13.256 37.2731 13.676C37.2131 14.096 37.1411 14.516 37.0571 14.936L36.2651 18.5H33.2411Z" fill="#273444"/>
<path d="M48.754 18.5V8.996H45.532V6.764H54.64V8.996H51.418V18.5H48.754ZM55.4981 18.5V9.572H57.6581L57.8381 11.138H57.9101C58.2341 10.538 58.6241 10.094 59.0801 9.806C59.5361 9.506 59.9921 9.356 60.4481 9.356C60.7001 9.356 60.9101 9.374 61.0781 9.41C61.2461 9.434 61.3901 9.476 61.5101 9.536L61.0781 11.822C60.9221 11.774 60.7661 11.738 60.6101 11.714C60.4661 11.69 60.2981 11.678 60.1061 11.678C59.7701 11.678 59.4161 11.804 59.0441 12.056C58.6841 12.296 58.3841 12.716 58.1441 13.316V18.5H55.4981ZM64.4102 18.716C63.5942 18.716 62.9462 18.458 62.4662 17.942C61.9862 17.414 61.7462 16.772 61.7462 16.016C61.7462 15.08 62.1422 14.348 62.9342 13.82C63.7262 13.292 65.0042 12.938 66.7682 12.758C66.7442 12.362 66.6242 12.05 66.4082 11.822C66.2042 11.582 65.8562 11.462 65.3642 11.462C64.9922 11.462 64.6142 11.534 64.2302 11.678C63.8462 11.822 63.4382 12.02 63.0062 12.272L62.0522 10.526C62.6162 10.178 63.2162 9.896 63.8522 9.68C64.5002 9.464 65.1722 9.356 65.8682 9.356C67.0082 9.356 67.8842 9.686 68.4962 10.346C69.1082 11.006 69.4142 12.02 69.4142 13.388V18.5H67.2542L67.0742 17.582H67.0022C66.6302 17.918 66.2282 18.194 65.7962 18.41C65.3762 18.614 64.9142 18.716 64.4102 18.716ZM65.3102 16.664C65.6102 16.664 65.8682 16.598 66.0842 16.466C66.3122 16.322 66.5402 16.136 66.7682 15.908V14.342C65.8322 14.462 65.1842 14.654 64.8242 14.918C64.4642 15.17 64.2842 15.47 64.2842 15.818C64.2842 16.106 64.3742 16.322 64.5542 16.466C64.7462 16.598 64.9982 16.664 65.3102 16.664ZM75.5404 18.716C74.7124 18.716 73.9624 18.536 73.2904 18.176C72.6304 17.804 72.1024 17.27 71.7064 16.574C71.3224 15.866 71.1304 15.02 71.1304 14.036C71.1304 13.04 71.3464 12.194 71.7784 11.498C72.2104 10.802 72.7804 10.274 73.4884 9.914C74.1964 9.542 74.9584 9.356 75.7744 9.356C76.3264 9.356 76.8124 9.446 77.2324 9.626C77.6644 9.806 78.0484 10.034 78.3844 10.31L77.1424 12.02C76.7224 11.672 76.3204 11.498 75.9364 11.498C75.3004 11.498 74.7904 11.726 74.4064 12.182C74.0344 12.638 73.8484 13.256 73.8484 14.036C73.8484 14.804 74.0344 15.422 74.4064 15.89C74.7904 16.346 75.2704 16.574 75.8464 16.574C76.1344 16.574 76.4164 16.514 76.6924 16.394C76.9684 16.262 77.2204 16.106 77.4484 15.926L78.4924 17.654C78.0484 18.038 77.5684 18.314 77.0524 18.482C76.5364 18.638 76.0324 18.716 75.5404 18.716ZM80.0548 18.5V5.882H82.6288V13.118H82.7008L85.5268 9.572H88.4068L85.2748 13.244L88.6408 18.5H85.7788L83.7628 15.026L82.6288 16.304V18.5H80.0548ZM89.9161 18.5V9.572H92.0761L92.2561 11.138H92.3281C92.6521 10.538 93.0421 10.094 93.4981 9.806C93.9541 9.506 94.4101 9.356 94.8661 9.356C95.1181 9.356 95.3281 9.374 95.4961 9.41C95.6641 9.434 95.8081 9.476 95.9281 9.536L95.4961 11.822C95.3401 11.774 95.1841 11.738 95.0281 11.714C94.8841 11.69 94.7161 11.678 94.5241 11.678C94.1881 11.678 93.8341 11.804 93.4621 12.056C93.1021 12.296 92.8021 12.716 92.5621 13.316V18.5H89.9161Z" fill="#540CFA"/>
</svg>
